<svg xmlns="http://www.w3.org/2000/svg" xmlns:xlink="http://www.w3.org/1999/xlink" width="500" zoomAndPan="magnify" viewBox="0 0 375 374.999991" height="500" preserveAspectRatio="xMidYMid meet" version="1.0"><defs><g/><clipPath id="e60ccb2ac2"><path d="M 14.902344 14.902344 L 360.097656 14.902344 L 360.097656 360.097656 L 14.902344 360.097656 Z M 14.902344 14.902344 " clip-rule="nonzero"/></clipPath><clipPath id="af12534853"><path d="M 187.5 14.902344 C 92.175781 14.902344 14.902344 92.175781 14.902344 187.5 C 14.902344 282.824219 92.175781 360.097656 187.5 360.097656 C 282.824219 360.097656 360.097656 282.824219 360.097656 187.5 C 360.097656 92.175781 282.824219 14.902344 187.5 14.902344 Z M 187.5 14.902344 " clip-rule="nonzero"/></clipPath></defs><g clip-path="url(#e60ccb2ac2)"><g clip-path="url(#af12534853)"><path fill="#d5015b" d="M 14.902344 14.902344 L 360.097656 14.902344 L 360.097656 360.097656 L 14.902344 360.097656 Z M 14.902344 14.902344 " fill-opacity="1" fill-rule="nonzero"/></g></g><g fill="#ffffff" fill-opacity="1"><g transform="translate(62.352423, 264.375839)"><g><path d="M 18.5625 0 L 18.5625 -142.78125 L 46.78125 -142.78125 L 46.78125 -84.46875 L 49.90625 -84.46875 L 97.5625 -142.78125 L 126.46875 -142.78125 L 126.46875 -140.328125 L 73.921875 -75.390625 L 131.9375 -2.4375 L 131.9375 0 L 100 0 L 49.90625 -61.625 L 46.78125 -61.625 L 46.78125 0 Z M 18.5625 0 "/></g></g><g transform="translate(194.28271, 264.375839)"><g><path d="M 114.453125 -142.78125 L 114.453125 -119.046875 L 73.25 -119.046875 L 73.25 0 L 45.125 0 L 45.125 -119.046875 L 3.90625 -119.046875 L 3.90625 -142.78125 Z M 114.453125 -142.78125 "/></g></g></g></svg>